<svg width="15" height="17" viewBox="0 0 15 17" fill="none" xmlns="http://www.w3.org/2000/svg">
<path d="M2.625 15.625C3.52246 15.625 4.25 14.8975 4.25 14C4.25 13.1025 3.52246 12.375 2.625 12.375C1.72754 12.375 1 13.1025 1 14C1 14.8975 1.72754 15.625 2.625 15.625Z" stroke="white" stroke-width="1.625" stroke-linecap="round" stroke-linejoin="round"/>
<path d="M11.5625 15.625C12.46 15.625 13.1875 14.8975 13.1875 14C13.1875 13.1025 12.46 12.375 11.5625 12.375C10.665 12.375 9.9375 13.1025 9.9375 14C9.9375 14.8975 10.665 15.625 11.5625 15.625Z" stroke="white" stroke-width="1.625" stroke-linecap="round" stroke-linejoin="round"/>
<path d="M11.5625 12.375H2.625V1H1" stroke="white" stroke-width="1.625" stroke-linecap="round" stroke-linejoin="round"/>
<path d="M14 3.4375L13.1875 9.125H2.625" stroke="white" stroke-width="1.625" stroke-linecap="round" stroke-linejoin="round"/>
<path d="M5.875 6.6875L10.75 1.8125" stroke="white" stroke-width="1.625" stroke-linecap="round" stroke-linejoin="round"/>
<path d="M6.28125 2.625C6.50562 2.625 6.6875 2.44312 6.6875 2.21875C6.6875 1.99438 6.50562 1.8125 6.28125 1.8125C6.05688 1.8125 5.875 1.99438 5.875 2.21875C5.875 2.44312 6.05688 2.625 6.28125 2.625Z" stroke="white" stroke-width="1.625" stroke-linecap="round" stroke-linejoin="round"/>
<path d="M10.3438 6.6875C10.5681 6.6875 10.75 6.50562 10.75 6.28125C10.75 6.05688 10.5681 5.875 10.3438 5.875C10.1194 5.875 9.9375 6.05688 9.9375 6.28125C9.9375 6.50562 10.1194 6.6875 10.3438 6.6875Z" stroke="white" stroke-width="1.625" stroke-linecap="round" stroke-linejoin="round"/>
</svg>
