<svg width="16" height="16" viewBox="0 0 16 16" fill="none" xmlns="http://www.w3.org/2000/svg">
<path d="M0.691322 7.80759L0.697348 7.82276L0.702372 7.83828L2.95483 14.8004C3.06045 14.983 3.20895 15.1457 3.40927 15.288C3.59506 15.4199 3.79654 15.4894 4.02502 15.4996C4.19809 15.49 4.39371 15.4248 4.61712 15.2695C4.84559 15.1106 4.96791 14.9589 5.02831 14.8246L7.2886 7.83828L7.29363 7.82276L7.29965 7.80759C7.5218 7.24841 7.51989 6.91064 7.4465 6.72071C7.40323 6.60873 7.35671 6.56127 7.32549 6.53924C7.29576 6.51825 7.24313 6.49415 7.13879 6.49415H3.98767H0.852182C0.747848 6.49415 0.695212 6.51825 0.665482 6.53924C0.63426 6.56127 0.587746 6.60873 0.544475 6.72071C0.471081 6.91064 0.469172 7.24841 0.691322 7.80759ZM2.2219 4.76612C2.71149 5.25482 3.29058 5.49415 3.98767 5.49415C4.68486 5.49415 5.26742 5.25468 5.76283 4.76456C6.25644 4.27621 6.49805 3.69677 6.49805 2.99707C6.49805 2.29738 6.25644 1.71794 5.76283 1.22959L6.10598 0.882743L5.76283 1.22959C5.26742 0.739465 4.68486 0.5 3.98767 0.5C3.29058 0.5 2.71149 0.739329 2.2219 1.22802C1.73301 1.71602 1.49293 2.29594 1.49293 2.99707C1.49293 3.6982 1.73301 4.27812 2.2219 4.76612ZM15.3194 14.1796L15.3159 14.1704L15.3128 14.1611L12.5605 5.96602L12.4066 5.50795L12.8592 5.33856C13.35 5.15483 13.7476 4.85183 14.0607 4.42045C14.3683 3.9966 14.5205 3.52721 14.5205 2.99707C14.5205 2.29738 14.2789 1.71794 13.7853 1.22959C13.2899 0.739465 12.7073 0.5 12.0101 0.5C11.3129 0.5 10.7304 0.739465 10.235 1.22959C9.74136 1.71794 9.49975 2.29738 9.49975 2.99707C9.49975 3.53619 9.65624 4.01206 9.97272 4.44047C10.2947 4.87635 10.7002 5.17619 11.198 5.35054L11.6665 5.51464L11.5058 5.98434L8.70654 14.1638L8.70262 14.1753L8.69815 14.1866C8.47649 14.7445 8.48148 15.0796 8.55685 15.2677C8.60314 15.3832 8.65168 15.4332 8.68404 15.4563C8.71378 15.4775 8.7631 15.5 8.85901 15.5H15.1613C15.2573 15.5 15.3049 15.4775 15.3323 15.4577C15.3622 15.4361 15.4091 15.388 15.4533 15.2734C15.5284 15.0792 15.5317 14.7382 15.3194 14.1796Z" stroke="black"/>
</svg>
