<svg width="18" height="20" viewBox="0 0 18 20" fill="none" xmlns="http://www.w3.org/2000/svg">
<path d="M4.30686 1.66162C4.6438 2.44486 5.34176 3.43243 5.31769 4.00649C5.3253 4.14289 5.30441 4.27938 5.25637 4.40708C5.20833 4.53478 5.13422 4.65082 5.03887 4.74766C4.94351 4.84449 4.82905 4.91994 4.70293 4.9691C4.5768 5.01826 4.44185 5.04002 4.30686 5.03297C4.17186 5.04002 4.03691 5.01826 3.91079 4.9691C3.78467 4.91994 3.67021 4.84449 3.57485 4.74766C3.4795 4.65082 3.40539 4.53478 3.35735 4.40708C3.30931 4.27938 3.28841 4.14289 3.29603 4.00649C3.27196 3.43243 3.96992 2.44486 4.31167 1.66162H4.30686ZM17 10.7978V16.4022C16.9567 17.8616 13.3899 19 9 19C4.61011 19 1.04332 17.8422 1 16.4022V10.7978H17ZM9 1C9.34176 1.78324 10.0397 2.77081 10.0156 3.34486C10.024 3.48209 10.0035 3.61956 9.95553 3.7482C9.90752 3.87684 9.83308 3.99374 9.73711 4.09119C9.64115 4.18864 9.52584 4.26442 9.39878 4.31355C9.27173 4.36268 9.13582 4.38404 9 4.37622C8.86531 4.37958 8.73135 4.35517 8.6063 4.30446C8.48125 4.25376 8.36774 4.17783 8.2727 4.08132C8.17765 3.9848 8.10306 3.86972 8.05349 3.7431C8.00391 3.61648 7.98039 3.48098 7.98436 3.34486C7.98436 2.77081 8.65824 1.78324 9 1ZM13.6594 1.65676C14.0012 2.44 14.6943 3.42757 14.6751 4.00162C14.6798 4.13792 14.6567 4.27374 14.6074 4.40068C14.5581 4.52762 14.4835 4.64299 14.3883 4.73965C14.2931 4.83631 14.1793 4.91221 14.054 4.96267C13.9286 5.01312 13.7943 5.03705 13.6594 5.03297V5.03297C13.5246 5.03705 13.3903 5.01312 13.2649 4.96267C13.1396 4.91221 13.0258 4.83631 12.9306 4.73965C12.8354 4.64299 12.7608 4.52762 12.7115 4.40068C12.6622 4.27374 12.6391 4.13792 12.6438 4.00162C12.6438 3.42757 13.3177 2.44 13.6594 1.65676V1.65676Z" stroke="black" stroke-linecap="round" stroke-linejoin="round"/>
<path d="M13.6566 5.65217V9.61836M17 10.4348C16.9519 11.8647 13.3873 13 9 13C4.61275 13 1.04811 11.8647 1.00481 10.4348V10.4106L17 10.4348ZM1 10.4058C1.0433 8.95652 4.60794 7.82609 8.99519 7.82609C13.3824 7.82609 16.9471 8.97584 16.9904 10.4058V10.43L1 10.4058ZM8.98557 5V8.81159V5ZM4.30968 5.65217V9.61836V5.65217Z" stroke="black" stroke-linecap="round" stroke-linejoin="round"/>
</svg>
